<svg xmlns="http://www.w3.org/2000/svg" width="860" height="280" viewBox="0 0 860 280" font-family="ui-monospace,SFMono-Regular,Menlo,Consolas,monospace">
<defs>
  <linearGradient id="title" x1="0" y1="0" x2="1" y2="0">
    <stop offset="0" stop-color="#7E37F9"/><stop offset="0.5" stop-color="#B48EF7"/><stop offset="1" stop-color="#E568C4"/>
  </linearGradient>
  <linearGradient id="sky" x1="0" y1="0" x2="0" y2="1">
    <stop offset="0" stop-color="#0b0f17"/><stop offset="1" stop-color="#0f1524"/>
  </linearGradient>
  <radialGradient id="glow" cx="0.5" cy="0.5" r="0.5">
    <stop offset="0" stop-color="#7E37F9" stop-opacity="0.35"/><stop offset="1" stop-color="#7E37F9" stop-opacity="0"/>
  </radialGradient>
  <filter id="neon" x="-40%" y="-40%" width="180%" height="180%">
    <feGaussianBlur stdDeviation="3.2" result="b"/><feMerge><feMergeNode in="b"/><feMergeNode in="SourceGraphic"/></feMerge>
  </filter>
</defs>
<rect width="860" height="280" fill="url(#sky)"/>
<ellipse cx="430.0" cy="140.0" rx="430.0" ry="175.0" fill="url(#glow)"/>
<g font-size="15" font-weight="500">
<g transform="translate(0,-300)"><text x="3.0" y="0" fill="#3a4f7a" opacity="0.1">2</text><text x="3.0" y="20" fill="#3a4f7a" opacity="0.11">タ</text><text x="3.0" y="40" fill="#7E37F9" opacity="0.13">ハ</text><text x="3.0" y="60" fill="#3a4f7a" opacity="0.14">ハ</text><text x="3.0" y="80" fill="#3a4f7a" opacity="0.15">ヤ</text><text x="3.0" y="100" fill="#3a4f7a" opacity="0.17">1</text><text x="3.0" y="120" fill="#7E37F9" opacity="0.18">ニ</text><text x="3.0" y="140" fill="#7E37F9" opacity="0.19">9</text><text x="3.0" y="160" fill="#3a4f7a" opacity="0.21">ウ</text><text x="3.0" y="180" fill="#3a4f7a" opacity="0.22">3</text><text x="3.0" y="200" fill="#7E37F9" opacity="0.23">b</text><text x="3.0" y="220" fill="#3a4f7a" opacity="0.25">1</text><text x="3.0" y="240" fill="#3a4f7a" opacity="0.26">ル</text><text x="3.0" y="260" fill="#7E37F9" opacity="0.27">ズ</text><text x="3.0" y="280" fill="#38f9d7" opacity="0.85">キ</text><animateTransform attributeName="transform" type="translate" from="0,-300" to="0,280" dur="6.12s" begin="-7.64s" repeatCount="indefinite"/></g>
<g transform="translate(0,-300)"><text x="23.0" y="0" fill="#3a4f7a" opacity="0.1">ブ</text><text x="23.0" y="20" fill="#3a4f7a" opacity="0.11">9</text><text x="23.0" y="40" fill="#7E37F9" opacity="0.13">プ</text><text x="23.0" y="60" fill="#3a4f7a" opacity="0.14">4</text><text x="23.0" y="80" fill="#3a4f7a" opacity="0.15">ナ</text><text x="23.0" y="100" fill="#7E37F9" opacity="0.17">ク</text><text x="23.0" y="120" fill="#3a4f7a" opacity="0.18">ブ</text><text x="23.0" y="140" fill="#3a4f7a" opacity="0.19">ハ</text><text x="23.0" y="160" fill="#7E37F9" opacity="0.21">ナ</text><text x="23.0" y="180" fill="#7E37F9" opacity="0.22">e</text><text x="23.0" y="200" fill="#7E37F9" opacity="0.23">ツ</text><text x="23.0" y="220" fill="#3a4f7a" opacity="0.25">イ</text><text x="23.0" y="240" fill="#3a4f7a" opacity="0.26">チ</text><text x="23.0" y="260" fill="#7E37F9" opacity="0.27">ヒ</text><text x="23.0" y="280" fill="#38f9d7" opacity="0.85">f</text><animateTransform attributeName="transform" type="translate" from="0,-300" to="0,280" dur="7.99s" begin="-6.8s" repeatCount="indefinite"/></g>
<g transform="translate(0,-300)"><text x="43.0" y="0" fill="#3a4f7a" opacity="0.1">ラ</text><text x="43.0" y="20" fill="#3a4f7a" opacity="0.11">8</text><text x="43.0" y="40" fill="#3a4f7a" opacity="0.13">c</text><text x="43.0" y="60" fill="#7E37F9" opacity="0.14">キ</text><text x="43.0" y="80" fill="#7E37F9" opacity="0.15">0</text><text x="43.0" y="100" fill="#7E37F9" opacity="0.17">ミ</text><text x="43.0" y="120" fill="#3a4f7a" opacity="0.18">ヌ</text><text x="43.0" y="140" fill="#3a4f7a" opacity="0.19">ラ</text><text x="43.0" y="160" fill="#7E37F9" opacity="0.21">タ</text><text x="43.0" y="180" fill="#7E37F9" opacity="0.22">c</text><text x="43.0" y="200" fill="#3a4f7a" opacity="0.23">ヅ</text><text x="43.0" y="220" fill="#3a4f7a" opacity="0.25">ナ</text><text x="43.0" y="240" fill="#7E37F9" opacity="0.26">ヤ</text><text x="43.0" y="260" fill="#3a4f7a" opacity="0.27">ア</text><text x="43.0" y="280" fill="#38f9d7" opacity="0.85">ヌ</text><animateTransform attributeName="transform" type="translate" from="0,-300" to="0,280" dur="4.9s" begin="-4.96s" repeatCount="indefinite"/></g>
<g transform="translate(0,-300)"><text x="63.0" y="0" fill="#7E37F9" opacity="0.1">フ</text><text x="63.0" y="20" fill="#3a4f7a" opacity="0.11">ツ</text><text x="63.0" y="40" fill="#3a4f7a" opacity="0.13">ヤ</text><text x="63.0" y="60" fill="#7E37F9" opacity="0.14">e</text><text x="63.0" y="80" fill="#7E37F9" opacity="0.15">ワ</text><text x="63.0" y="100" fill="#7E37F9" opacity="0.17">ミ</text><text x="63.0" y="120" fill="#7E37F9" opacity="0.18">0</text><text x="63.0" y="140" fill="#7E37F9" opacity="0.19">b</text><text x="63.0" y="160" fill="#3a4f7a" opacity="0.21">カ</text><text x="63.0" y="180" fill="#3a4f7a" opacity="0.22">ハ</text><text x="63.0" y="200" fill="#3a4f7a" opacity="0.23">ヌ</text><text x="63.0" y="220" fill="#3a4f7a" opacity="0.25">ニ</text><text x="63.0" y="240" fill="#3a4f7a" opacity="0.26">a</text><text x="63.0" y="260" fill="#3a4f7a" opacity="0.27">6</text><text x="63.0" y="280" fill="#38f9d7" opacity="0.85">7</text><animateTransform attributeName="transform" type="translate" from="0,-300" to="0,280" dur="7.57s" begin="-8.37s" repeatCount="indefinite"/></g>
<g transform="translate(0,-300)"><text x="83.0" y="0" fill="#3a4f7a" opacity="0.1">0</text><text x="83.0" y="20" fill="#3a4f7a" opacity="0.11">シ</text><text x="83.0" y="40" fill="#3a4f7a" opacity="0.13">e</text><text x="83.0" y="60" fill="#3a4f7a" opacity="0.14">b</text><text x="83.0" y="80" fill="#7E37F9" opacity="0.15">ニ</text><text x="83.0" y="100" fill="#7E37F9" opacity="0.17">ス</text><text x="83.0" y="120" fill="#7E37F9" opacity="0.18">0</text><text x="83.0" y="140" fill="#3a4f7a" opacity="0.19">2</text><text x="83.0" y="160" fill="#3a4f7a" opacity="0.21">フ</text><text x="83.0" y="180" fill="#3a4f7a" opacity="0.22">f</text><text x="83.0" y="200" fill="#7E37F9" opacity="0.23">ス</text><text x="83.0" y="220" fill="#7E37F9" opacity="0.25">c</text><text x="83.0" y="240" fill="#3a4f7a" opacity="0.26">2</text><text x="83.0" y="260" fill="#7E37F9" opacity="0.27">ラ</text><text x="83.0" y="280" fill="#38f9d7" opacity="0.85">ズ</text><animateTransform attributeName="transform" type="translate" from="0,-300" to="0,280" dur="5.5s" begin="-4.56s" repeatCount="indefinite"/></g>
<g transform="translate(0,-300)"><text x="103.0" y="0" fill="#3a4f7a" opacity="0.1">f</text><text x="103.0" y="20" fill="#7E37F9" opacity="0.11">ラ</text><text x="103.0" y="40" fill="#3a4f7a" opacity="0.13">3</text><text x="103.0" y="60" fill="#3a4f7a" opacity="0.14">d</text><text x="103.0" y="80" fill="#7E37F9" opacity="0.15">チ</text><text x="103.0" y="100" fill="#7E37F9" opacity="0.17">プ</text><text x="103.0" y="120" fill="#3a4f7a" opacity="0.18">ミ</text><text x="103.0" y="140" fill="#3a4f7a" opacity="0.19">1</text><text x="103.0" y="160" fill="#3a4f7a" opacity="0.21">ズ</text><text x="103.0" y="180" fill="#3a4f7a" opacity="0.22">d</text><text x="103.0" y="200" fill="#3a4f7a" opacity="0.23">4</text><text x="103.0" y="220" fill="#3a4f7a" opacity="0.25">カ</text><text x="103.0" y="240" fill="#3a4f7a" opacity="0.26">0</text><text x="103.0" y="260" fill="#7E37F9" opacity="0.27">ワ</text><text x="103.0" y="280" fill="#38f9d7" opacity="0.85">1</text><animateTransform attributeName="transform" type="translate" from="0,-300" to="0,280" dur="8.53s" begin="-7.68s" repeatCount="indefinite"/></g>
<g transform="translate(0,-300)"><text x="123.0" y="0" fill="#3a4f7a" opacity="0.1">マ</text><text x="123.0" y="20" fill="#7E37F9" opacity="0.11">シ</text><text x="123.0" y="40" fill="#3a4f7a" opacity="0.13">e</text><text x="123.0" y="60" fill="#7E37F9" opacity="0.14">2</text><text x="123.0" y="80" fill="#3a4f7a" opacity="0.15">6</text><text x="123.0" y="100" fill="#3a4f7a" opacity="0.17">ヅ</text><text x="123.0" y="120" fill="#3a4f7a" opacity="0.18">ミ</text><text x="123.0" y="140" fill="#3a4f7a" opacity="0.19">6</text><text x="123.0" y="160" fill="#7E37F9" opacity="0.21">ヤ</text><text x="123.0" y="180" fill="#7E37F9" opacity="0.22">ヒ</text><text x="123.0" y="200" fill="#3a4f7a" opacity="0.23">ウ</text><text x="123.0" y="220" fill="#3a4f7a" opacity="0.25">4</text><text x="123.0" y="240" fill="#7E37F9" opacity="0.26">b</text><text x="123.0" y="260" fill="#7E37F9" opacity="0.27">e</text><text x="123.0" y="280" fill="#38f9d7" opacity="0.85">c</text><animateTransform attributeName="transform" type="translate" from="0,-300" to="0,280" dur="6.13s" begin="-4.33s" repeatCount="indefinite"/></g>
<g transform="translate(0,-300)"><text x="143.0" y="0" fill="#7E37F9" opacity="0.1">7</text><text x="143.0" y="20" fill="#7E37F9" opacity="0.11">プ</text><text x="143.0" y="40" fill="#7E37F9" opacity="0.13">ツ</text><text x="143.0" y="60" fill="#7E37F9" opacity="0.14">0</text><text x="143.0" y="80" fill="#7E37F9" opacity="0.15">カ</text><text x="143.0" y="100" fill="#3a4f7a" opacity="0.17">ヰ</text><text x="143.0" y="120" fill="#3a4f7a" opacity="0.18">ニ</text><text x="143.0" y="140" fill="#7E37F9" opacity="0.19">ミ</text><text x="143.0" y="160" fill="#7E37F9" opacity="0.21">5</text><text x="143.0" y="180" fill="#3a4f7a" opacity="0.22">ル</text><text x="143.0" y="200" fill="#7E37F9" opacity="0.23">8</text><text x="143.0" y="220" fill="#3a4f7a" opacity="0.25">プ</text><text x="143.0" y="240" fill="#7E37F9" opacity="0.26">2</text><text x="143.0" y="260" fill="#7E37F9" opacity="0.27">5</text><text x="143.0" y="280" fill="#38f9d7" opacity="0.85">カ</text><animateTransform attributeName="transform" type="translate" from="0,-300" to="0,280" dur="8.92s" begin="-7.53s" repeatCount="indefinite"/></g>
<g transform="translate(0,-300)"><text x="163.0" y="0" fill="#7E37F9" opacity="0.1">ニ</text><text x="163.0" y="20" fill="#7E37F9" opacity="0.11">e</text><text x="163.0" y="40" fill="#3a4f7a" opacity="0.13">d</text><text x="163.0" y="60" fill="#7E37F9" opacity="0.14">ラ</text><text x="163.0" y="80" fill="#3a4f7a" opacity="0.15">3</text><text x="163.0" y="100" fill="#7E37F9" opacity="0.17">キ</text><text x="163.0" y="120" fill="#3a4f7a" opacity="0.18">ウ</text><text x="163.0" y="140" fill="#3a4f7a" opacity="0.19">グ</text><text x="163.0" y="160" fill="#3a4f7a" opacity="0.21">ツ</text><text x="163.0" y="180" fill="#7E37F9" opacity="0.22">1</text><text x="163.0" y="200" fill="#3a4f7a" opacity="0.23">6</text><text x="163.0" y="220" fill="#7E37F9" opacity="0.25">グ</text><text x="163.0" y="240" fill="#3a4f7a" opacity="0.26">d</text><text x="163.0" y="260" fill="#3a4f7a" opacity="0.27">ム</text><text x="163.0" y="280" fill="#38f9d7" opacity="0.85">チ</text><animateTransform attributeName="transform" type="translate" from="0,-300" to="0,280" dur="7.67s" begin="-1.79s" repeatCount="indefinite"/></g>
<g transform="translate(0,-300)"><text x="183.0" y="0" fill="#7E37F9" opacity="0.1">4</text><text x="183.0" y="20" fill="#3a4f7a" opacity="0.11">タ</text><text x="183.0" y="40" fill="#7E37F9" opacity="0.13">ミ</text><text x="183.0" y="60" fill="#3a4f7a" opacity="0.14">フ</text><text x="183.0" y="80" fill="#3a4f7a" opacity="0.15">9</text><text x="183.0" y="100" fill="#7E37F9" opacity="0.17">1</text><text x="183.0" y="120" fill="#7E37F9" opacity="0.18">グ</text><text x="183.0" y="140" fill="#3a4f7a" opacity="0.19">ス</text><text x="183.0" y="160" fill="#7E37F9" opacity="0.21">ヒ</text><text x="183.0" y="180" fill="#7E37F9" opacity="0.22">6</text><text x="183.0" y="200" fill="#7E37F9" opacity="0.23">フ</text><text x="183.0" y="220" fill="#7E37F9" opacity="0.25">シ</text><text x="183.0" y="240" fill="#7E37F9" opacity="0.26">2</text><text x="183.0" y="260" fill="#3a4f7a" opacity="0.27">ム</text><text x="183.0" y="280" fill="#38f9d7" opacity="0.85">ウ</text><animateTransform attributeName="transform" type="translate" from="0,-300" to="0,280" dur="9.41s" begin="-5.92s" repeatCount="indefinite"/></g>
<g transform="translate(0,-300)"><text x="203.0" y="0" fill="#3a4f7a" opacity="0.1">ワ</text><text x="203.0" y="20" fill="#3a4f7a" opacity="0.11">c</text><text x="203.0" y="40" fill="#7E37F9" opacity="0.13">f</text><text x="203.0" y="60" fill="#7E37F9" opacity="0.14">4</text><text x="203.0" y="80" fill="#3a4f7a" opacity="0.15">d</text><text x="203.0" y="100" fill="#3a4f7a" opacity="0.17">4</text><text x="203.0" y="120" fill="#3a4f7a" opacity="0.18">0</text><text x="203.0" y="140" fill="#7E37F9" opacity="0.19">ニ</text><text x="203.0" y="160" fill="#3a4f7a" opacity="0.21">ヌ</text><text x="203.0" y="180" fill="#3a4f7a" opacity="0.22">グ</text><text x="203.0" y="200" fill="#7E37F9" opacity="0.23">7</text><text x="203.0" y="220" fill="#3a4f7a" opacity="0.25">ナ</text><text x="203.0" y="240" fill="#3a4f7a" opacity="0.26">ハ</text><text x="203.0" y="260" fill="#7E37F9" opacity="0.27">ヅ</text><text x="203.0" y="280" fill="#38f9d7" opacity="0.85">ミ</text><animateTransform attributeName="transform" type="translate" from="0,-300" to="0,280" dur="6.02s" begin="-6.9s" repeatCount="indefinite"/></g>
<g transform="translate(0,-300)"><text x="223.0" y="0" fill="#7E37F9" opacity="0.1">ズ</text><text x="223.0" y="20" fill="#3a4f7a" opacity="0.11">ヅ</text><text x="223.0" y="40" fill="#3a4f7a" opacity="0.13">サ</text><text x="223.0" y="60" fill="#3a4f7a" opacity="0.14">2</text><text x="223.0" y="80" fill="#3a4f7a" opacity="0.15">ウ</text><text x="223.0" y="100" fill="#7E37F9" opacity="0.17">ヅ</text><text x="223.0" y="120" fill="#3a4f7a" opacity="0.18">マ</text><text x="223.0" y="140" fill="#3a4f7a" opacity="0.19">9</text><text x="223.0" y="160" fill="#7E37F9" opacity="0.21">ズ</text><text x="223.0" y="180" fill="#7E37F9" opacity="0.22">シ</text><text x="223.0" y="200" fill="#7E37F9" opacity="0.23">ヅ</text><text x="223.0" y="220" fill="#3a4f7a" opacity="0.25">プ</text><text x="223.0" y="240" fill="#7E37F9" opacity="0.26">リ</text><text x="223.0" y="260" fill="#7E37F9" opacity="0.27">6</text><text x="223.0" y="280" fill="#38f9d7" opacity="0.85">ミ</text><animateTransform attributeName="transform" type="translate" from="0,-300" to="0,280" dur="5.67s" begin="-2.19s" repeatCount="indefinite"/></g>
<g transform="translate(0,-300)"><text x="243.0" y="0" fill="#3a4f7a" opacity="0.1">8</text><text x="243.0" y="20" fill="#7E37F9" opacity="0.11">7</text><text x="243.0" y="40" fill="#7E37F9" opacity="0.13">c</text><text x="243.0" y="60" fill="#3a4f7a" opacity="0.14">ブ</text><text x="243.0" y="80" fill="#7E37F9" opacity="0.15">ワ</text><text x="243.0" y="100" fill="#3a4f7a" opacity="0.17">ヤ</text><text x="243.0" y="120" fill="#3a4f7a" opacity="0.18">ス</text><text x="243.0" y="140" fill="#3a4f7a" opacity="0.19">シ</text><text x="243.0" y="160" fill="#7E37F9" opacity="0.21">9</text><text x="243.0" y="180" fill="#3a4f7a" opacity="0.22">フ</text><text x="243.0" y="200" fill="#3a4f7a" opacity="0.23">ヌ</text><text x="243.0" y="220" fill="#7E37F9" opacity="0.25">1</text><text x="243.0" y="240" fill="#3a4f7a" opacity="0.26">ヰ</text><text x="243.0" y="260" fill="#7E37F9" opacity="0.27">リ</text><text x="243.0" y="280" fill="#38f9d7" opacity="0.85">ヌ</text><animateTransform attributeName="transform" type="translate" from="0,-300" to="0,280" dur="9.26s" begin="-7.81s" repeatCount="indefinite"/></g>
<g transform="translate(0,-300)"><text x="263.0" y="0" fill="#3a4f7a" opacity="0.1">ム</text><text x="263.0" y="20" fill="#3a4f7a" opacity="0.11">6</text><text x="263.0" y="40" fill="#7E37F9" opacity="0.13">ユ</text><text x="263.0" y="60" fill="#7E37F9" opacity="0.14">9</text><text x="263.0" y="80" fill="#7E37F9" opacity="0.15">4</text><text x="263.0" y="100" fill="#7E37F9" opacity="0.17">ヰ</text><text x="263.0" y="120" fill="#7E37F9" opacity="0.18">8</text><text x="263.0" y="140" fill="#3a4f7a" opacity="0.19">ヅ</text><text x="263.0" y="160" fill="#3a4f7a" opacity="0.21">イ</text><text x="263.0" y="180" fill="#3a4f7a" opacity="0.22">プ</text><text x="263.0" y="200" fill="#7E37F9" opacity="0.23">ニ</text><text x="263.0" y="220" fill="#7E37F9" opacity="0.25">グ</text><text x="263.0" y="240" fill="#7E37F9" opacity="0.26">ヒ</text><text x="263.0" y="260" fill="#7E37F9" opacity="0.27">ハ</text><text x="263.0" y="280" fill="#38f9d7" opacity="0.85">シ</text><animateTransform attributeName="transform" type="translate" from="0,-300" to="0,280" dur="8.43s" begin="-5.15s" repeatCount="indefinite"/></g>
<g transform="translate(0,-300)"><text x="283.0" y="0" fill="#3a4f7a" opacity="0.1">ユ</text><text x="283.0" y="20" fill="#7E37F9" opacity="0.11">リ</text><text x="283.0" y="40" fill="#3a4f7a" opacity="0.13">リ</text><text x="283.0" y="60" fill="#3a4f7a" opacity="0.14">プ</text><text x="283.0" y="80" fill="#7E37F9" opacity="0.15">6</text><text x="283.0" y="100" fill="#7E37F9" opacity="0.17">c</text><text x="283.0" y="120" fill="#3a4f7a" opacity="0.18">ウ</text><text x="283.0" y="140" fill="#7E37F9" opacity="0.19">0</text><text x="283.0" y="160" fill="#3a4f7a" opacity="0.21">ヅ</text><text x="283.0" y="180" fill="#7E37F9" opacity="0.22">ナ</text><text x="283.0" y="200" fill="#3a4f7a" opacity="0.23">e</text><text x="283.0" y="220" fill="#7E37F9" opacity="0.25">マ</text><text x="283.0" y="240" fill="#3a4f7a" opacity="0.26">マ</text><text x="283.0" y="260" fill="#7E37F9" opacity="0.27">e</text><text x="283.0" y="280" fill="#38f9d7" opacity="0.85">0</text><animateTransform attributeName="transform" type="translate" from="0,-300" to="0,280" dur="8.94s" begin="-2.25s" repeatCount="indefinite"/></g>
<g transform="translate(0,-300)"><text x="303.0" y="0" fill="#3a4f7a" opacity="0.1">9</text><text x="303.0" y="20" fill="#3a4f7a" opacity="0.11">d</text><text x="303.0" y="40" fill="#7E37F9" opacity="0.13">ナ</text><text x="303.0" y="60" fill="#7E37F9" opacity="0.14">6</text><text x="303.0" y="80" fill="#7E37F9" opacity="0.15">ア</text><text x="303.0" y="100" fill="#7E37F9" opacity="0.17">ズ</text><text x="303.0" y="120" fill="#7E37F9" opacity="0.18">ヒ</text><text x="303.0" y="140" fill="#7E37F9" opacity="0.19">ヒ</text><text x="303.0" y="160" fill="#7E37F9" opacity="0.21">ウ</text><text x="303.0" y="180" fill="#7E37F9" opacity="0.22">ユ</text><text x="303.0" y="200" fill="#3a4f7a" opacity="0.23">ル</text><text x="303.0" y="220" fill="#3a4f7a" opacity="0.25">サ</text><text x="303.0" y="240" fill="#3a4f7a" opacity="0.26">b</text><text x="303.0" y="260" fill="#3a4f7a" opacity="0.27">ヰ</text><text x="303.0" y="280" fill="#38f9d7" opacity="0.85">チ</text><animateTransform attributeName="transform" type="translate" from="0,-300" to="0,280" dur="8.41s" begin="-6.91s" repeatCount="indefinite"/></g>
<g transform="translate(0,-300)"><text x="323.0" y="0" fill="#7E37F9" opacity="0.1">6</text><text x="323.0" y="20" fill="#7E37F9" opacity="0.11">ヰ</text><text x="323.0" y="40" fill="#3a4f7a" opacity="0.13">5</text><text x="323.0" y="60" fill="#3a4f7a" opacity="0.14">タ</text><text x="323.0" y="80" fill="#7E37F9" opacity="0.15">ム</text><text x="323.0" y="100" fill="#7E37F9" opacity="0.17">ワ</text><text x="323.0" y="120" fill="#7E37F9" opacity="0.18">5</text><text x="323.0" y="140" fill="#3a4f7a" opacity="0.19">a</text><text x="323.0" y="160" fill="#7E37F9" opacity="0.21">5</text><text x="323.0" y="180" fill="#7E37F9" opacity="0.22">ズ</text><text x="323.0" y="200" fill="#3a4f7a" opacity="0.23">c</text><text x="323.0" y="220" fill="#7E37F9" opacity="0.25">e</text><text x="323.0" y="240" fill="#7E37F9" opacity="0.26">リ</text><text x="323.0" y="260" fill="#3a4f7a" opacity="0.27">ヤ</text><text x="323.0" y="280" fill="#38f9d7" opacity="0.85">c</text><animateTransform attributeName="transform" type="translate" from="0,-300" to="0,280" dur="6.98s" begin="-7.2s" repeatCount="indefinite"/></g>
<g transform="translate(0,-300)"><text x="343.0" y="0" fill="#7E37F9" opacity="0.1">d</text><text x="343.0" y="20" fill="#7E37F9" opacity="0.11">6</text><text x="343.0" y="40" fill="#7E37F9" opacity="0.13">6</text><text x="343.0" y="60" fill="#7E37F9" opacity="0.14">f</text><text x="343.0" y="80" fill="#7E37F9" opacity="0.15">ム</text><text x="343.0" y="100" fill="#3a4f7a" opacity="0.17">ナ</text><text x="343.0" y="120" fill="#3a4f7a" opacity="0.18">シ</text><text x="343.0" y="140" fill="#7E37F9" opacity="0.19">a</text><text x="343.0" y="160" fill="#7E37F9" opacity="0.21">サ</text><text x="343.0" y="180" fill="#3a4f7a" opacity="0.22">a</text><text x="343.0" y="200" fill="#7E37F9" opacity="0.23">ナ</text><text x="343.0" y="220" fill="#3a4f7a" opacity="0.25">ヅ</text><text x="343.0" y="240" fill="#3a4f7a" opacity="0.26">フ</text><text x="343.0" y="260" fill="#7E37F9" opacity="0.27">f</text><text x="343.0" y="280" fill="#38f9d7" opacity="0.85">ア</text><animateTransform attributeName="transform" type="translate" from="0,-300" to="0,280" dur="6.28s" begin="-1.61s" repeatCount="indefinite"/></g>
<g transform="translate(0,-300)"><text x="363.0" y="0" fill="#3a4f7a" opacity="0.1">4</text><text x="363.0" y="20" fill="#7E37F9" opacity="0.11">ク</text><text x="363.0" y="40" fill="#3a4f7a" opacity="0.13">2</text><text x="363.0" y="60" fill="#7E37F9" opacity="0.14">イ</text><text x="363.0" y="80" fill="#7E37F9" opacity="0.15">サ</text><text x="363.0" y="100" fill="#3a4f7a" opacity="0.17">イ</text><text x="363.0" y="120" fill="#7E37F9" opacity="0.18">2</text><text x="363.0" y="140" fill="#7E37F9" opacity="0.19">マ</text><text x="363.0" y="160" fill="#7E37F9" opacity="0.21">e</text><text x="363.0" y="180" fill="#3a4f7a" opacity="0.22">ズ</text><text x="363.0" y="200" fill="#3a4f7a" opacity="0.23">3</text><text x="363.0" y="220" fill="#3a4f7a" opacity="0.25">リ</text><text x="363.0" y="240" fill="#7E37F9" opacity="0.26">ミ</text><text x="363.0" y="260" fill="#7E37F9" opacity="0.27">ヒ</text><text x="363.0" y="280" fill="#38f9d7" opacity="0.85">シ</text><animateTransform attributeName="transform" type="translate" from="0,-300" to="0,280" dur="8.51s" begin="-2.35s" repeatCount="indefinite"/></g>
<g transform="translate(0,-300)"><text x="383.0" y="0" fill="#3a4f7a" opacity="0.1">7</text><text x="383.0" y="20" fill="#3a4f7a" opacity="0.11">ズ</text><text x="383.0" y="40" fill="#3a4f7a" opacity="0.13">ヅ</text><text x="383.0" y="60" fill="#3a4f7a" opacity="0.14">グ</text><text x="383.0" y="80" fill="#7E37F9" opacity="0.15">ヰ</text><text x="383.0" y="100" fill="#3a4f7a" opacity="0.17">シ</text><text x="383.0" y="120" fill="#7E37F9" opacity="0.18">キ</text><text x="383.0" y="140" fill="#7E37F9" opacity="0.19">ア</text><text x="383.0" y="160" fill="#7E37F9" opacity="0.21">ツ</text><text x="383.0" y="180" fill="#7E37F9" opacity="0.22">ワ</text><text x="383.0" y="200" fill="#3a4f7a" opacity="0.23">1</text><text x="383.0" y="220" fill="#3a4f7a" opacity="0.25">6</text><text x="383.0" y="240" fill="#3a4f7a" opacity="0.26">d</text><text x="383.0" y="260" fill="#7E37F9" opacity="0.27">ウ</text><text x="383.0" y="280" fill="#38f9d7" opacity="0.85">ブ</text><animateTransform attributeName="transform" type="translate" from="0,-300" to="0,280" dur="6.13s" begin="-5.44s" repeatCount="indefinite"/></g>
<g transform="translate(0,-300)"><text x="403.0" y="0" fill="#3a4f7a" opacity="0.1">ム</text><text x="403.0" y="20" fill="#3a4f7a" opacity="0.11">ハ</text><text x="403.0" y="40" fill="#7E37F9" opacity="0.13">リ</text><text x="403.0" y="60" fill="#7E37F9" opacity="0.14">ウ</text><text x="403.0" y="80" fill="#7E37F9" opacity="0.15">ツ</text><text x="403.0" y="100" fill="#3a4f7a" opacity="0.17">ヌ</text><text x="403.0" y="120" fill="#7E37F9" opacity="0.18">ム</text><text x="403.0" y="140" fill="#7E37F9" opacity="0.19">イ</text><text x="403.0" y="160" fill="#3a4f7a" opacity="0.21">c</text><text x="403.0" y="180" fill="#7E37F9" opacity="0.22">イ</text><text x="403.0" y="200" fill="#3a4f7a" opacity="0.23">ワ</text><text x="403.0" y="220" fill="#3a4f7a" opacity="0.25">2</text><text x="403.0" y="240" fill="#7E37F9" opacity="0.26">5</text><text x="403.0" y="260" fill="#3a4f7a" opacity="0.27">イ</text><text x="403.0" y="280" fill="#38f9d7" opacity="0.85">ブ</text><animateTransform attributeName="transform" type="translate" from="0,-300" to="0,280" dur="7.24s" begin="-8.43s" repeatCount="indefinite"/></g>
<g transform="translate(0,-300)"><text x="423.0" y="0" fill="#7E37F9" opacity="0.1">9</text><text x="423.0" y="20" fill="#7E37F9" opacity="0.11">f</text><text x="423.0" y="40" fill="#7E37F9" opacity="0.13">c</text><text x="423.0" y="60" fill="#3a4f7a" opacity="0.14">5</text><text x="423.0" y="80" fill="#3a4f7a" opacity="0.15">c</text><text x="423.0" y="100" fill="#7E37F9" opacity="0.17">ヅ</text><text x="423.0" y="120" fill="#3a4f7a" opacity="0.18">ム</text><text x="423.0" y="140" fill="#7E37F9" opacity="0.19">ツ</text><text x="423.0" y="160" fill="#7E37F9" opacity="0.21">シ</text><text x="423.0" y="180" fill="#3a4f7a" opacity="0.22">サ</text><text x="423.0" y="200" fill="#3a4f7a" opacity="0.23">フ</text><text x="423.0" y="220" fill="#3a4f7a" opacity="0.25">ウ</text><text x="423.0" y="240" fill="#7E37F9" opacity="0.26">ヒ</text><text x="423.0" y="260" fill="#3a4f7a" opacity="0.27">e</text><text x="423.0" y="280" fill="#38f9d7" opacity="0.85">ア</text><animateTransform attributeName="transform" type="translate" from="0,-300" to="0,280" dur="8.27s" begin="-1.87s" repeatCount="indefinite"/></g>
<g transform="translate(0,-300)"><text x="443.0" y="0" fill="#3a4f7a" opacity="0.1">ズ</text><text x="443.0" y="20" fill="#7E37F9" opacity="0.11">c</text><text x="443.0" y="40" fill="#7E37F9" opacity="0.13">ル</text><text x="443.0" y="60" fill="#7E37F9" opacity="0.14">1</text><text x="443.0" y="80" fill="#3a4f7a" opacity="0.15">ク</text><text x="443.0" y="100" fill="#3a4f7a" opacity="0.17">タ</text><text x="443.0" y="120" fill="#7E37F9" opacity="0.18">4</text><text x="443.0" y="140" fill="#7E37F9" opacity="0.19">ヤ</text><text x="443.0" y="160" fill="#7E37F9" opacity="0.21">f</text><text x="443.0" y="180" fill="#3a4f7a" opacity="0.22">5</text><text x="443.0" y="200" fill="#7E37F9" opacity="0.23">7</text><text x="443.0" y="220" fill="#7E37F9" opacity="0.25">ミ</text><text x="443.0" y="240" fill="#3a4f7a" opacity="0.26">8</text><text x="443.0" y="260" fill="#3a4f7a" opacity="0.27">ミ</text><text x="443.0" y="280" fill="#38f9d7" opacity="0.85">6</text><animateTransform attributeName="transform" type="translate" from="0,-300" to="0,280" dur="7.59s" begin="-4.59s" repeatCount="indefinite"/></g>
<g transform="translate(0,-300)"><text x="463.0" y="0" fill="#7E37F9" opacity="0.1">ヌ</text><text x="463.0" y="20" fill="#3a4f7a" opacity="0.11">イ</text><text x="463.0" y="40" fill="#3a4f7a" opacity="0.13">ク</text><text x="463.0" y="60" fill="#7E37F9" opacity="0.14">ミ</text><text x="463.0" y="80" fill="#3a4f7a" opacity="0.15">ヌ</text><text x="463.0" y="100" fill="#7E37F9" opacity="0.17">マ</text><text x="463.0" y="120" fill="#3a4f7a" opacity="0.18">ム</text><text x="463.0" y="140" fill="#3a4f7a" opacity="0.19">フ</text><text x="463.0" y="160" fill="#7E37F9" opacity="0.21">ヌ</text><text x="463.0" y="180" fill="#7E37F9" opacity="0.22">ニ</text><text x="463.0" y="200" fill="#7E37F9" opacity="0.23">1</text><text x="463.0" y="220" fill="#3a4f7a" opacity="0.25">ウ</text><text x="463.0" y="240" fill="#3a4f7a" opacity="0.26">a</text><text x="463.0" y="260" fill="#7E37F9" opacity="0.27">7</text><text x="463.0" y="280" fill="#38f9d7" opacity="0.85">d</text><animateTransform attributeName="transform" type="translate" from="0,-300" to="0,280" dur="7.46s" begin="-3.46s" repeatCount="indefinite"/></g>
<g transform="translate(0,-300)"><text x="483.0" y="0" fill="#7E37F9" opacity="0.1">ブ</text><text x="483.0" y="20" fill="#7E37F9" opacity="0.11">0</text><text x="483.0" y="40" fill="#7E37F9" opacity="0.13">ウ</text><text x="483.0" y="60" fill="#7E37F9" opacity="0.14">ニ</text><text x="483.0" y="80" fill="#7E37F9" opacity="0.15">ラ</text><text x="483.0" y="100" fill="#7E37F9" opacity="0.17">f</text><text x="483.0" y="120" fill="#3a4f7a" opacity="0.18">ヒ</text><text x="483.0" y="140" fill="#3a4f7a" opacity="0.19">ナ</text><text x="483.0" y="160" fill="#7E37F9" opacity="0.21">8</text><text x="483.0" y="180" fill="#7E37F9" opacity="0.22">ア</text><text x="483.0" y="200" fill="#3a4f7a" opacity="0.23">b</text><text x="483.0" y="220" fill="#7E37F9" opacity="0.25">ブ</text><text x="483.0" y="240" fill="#7E37F9" opacity="0.26">1</text><text x="483.0" y="260" fill="#7E37F9" opacity="0.27">キ</text><text x="483.0" y="280" fill="#38f9d7" opacity="0.85">マ</text><animateTransform attributeName="transform" type="translate" from="0,-300" to="0,280" dur="6.59s" begin="-5.72s" repeatCount="indefinite"/></g>
<g transform="translate(0,-300)"><text x="503.0" y="0" fill="#7E37F9" opacity="0.1">4</text><text x="503.0" y="20" fill="#3a4f7a" opacity="0.11">プ</text><text x="503.0" y="40" fill="#3a4f7a" opacity="0.13">キ</text><text x="503.0" y="60" fill="#3a4f7a" opacity="0.14">タ</text><text x="503.0" y="80" fill="#3a4f7a" opacity="0.15">f</text><text x="503.0" y="100" fill="#3a4f7a" opacity="0.17">ル</text><text x="503.0" y="120" fill="#7E37F9" opacity="0.18">グ</text><text x="503.0" y="140" fill="#7E37F9" opacity="0.19">8</text><text x="503.0" y="160" fill="#3a4f7a" opacity="0.21">ス</text><text x="503.0" y="180" fill="#3a4f7a" opacity="0.22">8</text><text x="503.0" y="200" fill="#3a4f7a" opacity="0.23">ル</text><text x="503.0" y="220" fill="#7E37F9" opacity="0.25">8</text><text x="503.0" y="240" fill="#7E37F9" opacity="0.26">6</text><text x="503.0" y="260" fill="#7E37F9" opacity="0.27">イ</text><text x="503.0" y="280" fill="#38f9d7" opacity="0.85">シ</text><animateTransform attributeName="transform" type="translate" from="0,-300" to="0,280" dur="4.56s" begin="-4.04s" repeatCount="indefinite"/></g>
<g transform="translate(0,-300)"><text x="523.0" y="0" fill="#7E37F9" opacity="0.1">フ</text><text x="523.0" y="20" fill="#7E37F9" opacity="0.11">ヅ</text><text x="523.0" y="40" fill="#3a4f7a" opacity="0.13">ア</text><text x="523.0" y="60" fill="#3a4f7a" opacity="0.14">ニ</text><text x="523.0" y="80" fill="#7E37F9" opacity="0.15">チ</text><text x="523.0" y="100" fill="#7E37F9" opacity="0.17">イ</text><text x="523.0" y="120" fill="#3a4f7a" opacity="0.18">マ</text><text x="523.0" y="140" fill="#3a4f7a" opacity="0.19">ワ</text><text x="523.0" y="160" fill="#3a4f7a" opacity="0.21">ラ</text><text x="523.0" y="180" fill="#3a4f7a" opacity="0.22">2</text><text x="523.0" y="200" fill="#7E37F9" opacity="0.23">ヌ</text><text x="523.0" y="220" fill="#3a4f7a" opacity="0.25">2</text><text x="523.0" y="240" fill="#7E37F9" opacity="0.26">c</text><text x="523.0" y="260" fill="#7E37F9" opacity="0.27">ヤ</text><text x="523.0" y="280" fill="#38f9d7" opacity="0.85">2</text><animateTransform attributeName="transform" type="translate" from="0,-300" to="0,280" dur="9.22s" begin="-2.28s" repeatCount="indefinite"/></g>
<g transform="translate(0,-300)"><text x="543.0" y="0" fill="#7E37F9" opacity="0.1">マ</text><text x="543.0" y="20" fill="#7E37F9" opacity="0.11">6</text><text x="543.0" y="40" fill="#7E37F9" opacity="0.13">ミ</text><text x="543.0" y="60" fill="#7E37F9" opacity="0.14">ヰ</text><text x="543.0" y="80" fill="#3a4f7a" opacity="0.15">a</text><text x="543.0" y="100" fill="#3a4f7a" opacity="0.17">f</text><text x="543.0" y="120" fill="#3a4f7a" opacity="0.18">0</text><text x="543.0" y="140" fill="#7E37F9" opacity="0.19">マ</text><text x="543.0" y="160" fill="#3a4f7a" opacity="0.21">6</text><text x="543.0" y="180" fill="#7E37F9" opacity="0.22">9</text><text x="543.0" y="200" fill="#7E37F9" opacity="0.23">シ</text><text x="543.0" y="220" fill="#7E37F9" opacity="0.25">1</text><text x="543.0" y="240" fill="#3a4f7a" opacity="0.26">ブ</text><text x="543.0" y="260" fill="#3a4f7a" opacity="0.27">f</text><text x="543.0" y="280" fill="#38f9d7" opacity="0.85">8</text><animateTransform attributeName="transform" type="translate" from="0,-300" to="0,280" dur="8.63s" begin="-3.32s" repeatCount="indefinite"/></g>
<g transform="translate(0,-300)"><text x="563.0" y="0" fill="#7E37F9" opacity="0.1">7</text><text x="563.0" y="20" fill="#7E37F9" opacity="0.11">ハ</text><text x="563.0" y="40" fill="#3a4f7a" opacity="0.13">3</text><text x="563.0" y="60" fill="#3a4f7a" opacity="0.14">ム</text><text x="563.0" y="80" fill="#7E37F9" opacity="0.15">2</text><text x="563.0" y="100" fill="#7E37F9" opacity="0.17">b</text><text x="563.0" y="120" fill="#7E37F9" opacity="0.18">プ</text><text x="563.0" y="140" fill="#3a4f7a" opacity="0.19">7</text><text x="563.0" y="160" fill="#7E37F9" opacity="0.21">サ</text><text x="563.0" y="180" fill="#3a4f7a" opacity="0.22">ワ</text><text x="563.0" y="200" fill="#7E37F9" opacity="0.23">ク</text><text x="563.0" y="220" fill="#3a4f7a" opacity="0.25">ミ</text><text x="563.0" y="240" fill="#3a4f7a" opacity="0.26">ズ</text><text x="563.0" y="260" fill="#7E37F9" opacity="0.27">6</text><text x="563.0" y="280" fill="#38f9d7" opacity="0.85">4</text><animateTransform attributeName="transform" type="translate" from="0,-300" to="0,280" dur="7.39s" begin="-7.57s" repeatCount="indefinite"/></g>
<g transform="translate(0,-300)"><text x="583.0" y="0" fill="#7E37F9" opacity="0.1">b</text><text x="583.0" y="20" fill="#7E37F9" opacity="0.11">シ</text><text x="583.0" y="40" fill="#7E37F9" opacity="0.13">3</text><text x="583.0" y="60" fill="#7E37F9" opacity="0.14">6</text><text x="583.0" y="80" fill="#3a4f7a" opacity="0.15">9</text><text x="583.0" y="100" fill="#7E37F9" opacity="0.17">シ</text><text x="583.0" y="120" fill="#7E37F9" opacity="0.18">8</text><text x="583.0" y="140" fill="#7E37F9" opacity="0.19">サ</text><text x="583.0" y="160" fill="#3a4f7a" opacity="0.21">d</text><text x="583.0" y="180" fill="#7E37F9" opacity="0.22">ヰ</text><text x="583.0" y="200" fill="#7E37F9" opacity="0.23">ム</text><text x="583.0" y="220" fill="#3a4f7a" opacity="0.25">ル</text><text x="583.0" y="240" fill="#3a4f7a" opacity="0.26">ユ</text><text x="583.0" y="260" fill="#3a4f7a" opacity="0.27">7</text><text x="583.0" y="280" fill="#38f9d7" opacity="0.85">e</text><animateTransform attributeName="transform" type="translate" from="0,-300" to="0,280" dur="8.12s" begin="-0.23s" repeatCount="indefinite"/></g>
<g transform="translate(0,-300)"><text x="603.0" y="0" fill="#7E37F9" opacity="0.1">d</text><text x="603.0" y="20" fill="#7E37F9" opacity="0.11">イ</text><text x="603.0" y="40" fill="#7E37F9" opacity="0.13">ズ</text><text x="603.0" y="60" fill="#3a4f7a" opacity="0.14">5</text><text x="603.0" y="80" fill="#7E37F9" opacity="0.15">ア</text><text x="603.0" y="100" fill="#7E37F9" opacity="0.17">マ</text><text x="603.0" y="120" fill="#3a4f7a" opacity="0.18">イ</text><text x="603.0" y="140" fill="#3a4f7a" opacity="0.19">6</text><text x="603.0" y="160" fill="#3a4f7a" opacity="0.21">ズ</text><text x="603.0" y="180" fill="#3a4f7a" opacity="0.22">0</text><text x="603.0" y="200" fill="#7E37F9" opacity="0.23">a</text><text x="603.0" y="220" fill="#3a4f7a" opacity="0.25">6</text><text x="603.0" y="240" fill="#3a4f7a" opacity="0.26">プ</text><text x="603.0" y="260" fill="#3a4f7a" opacity="0.27">ツ</text><text x="603.0" y="280" fill="#38f9d7" opacity="0.85">フ</text><animateTransform attributeName="transform" type="translate" from="0,-300" to="0,280" dur="6.66s" begin="-6.66s" repeatCount="indefinite"/></g>
<g transform="translate(0,-300)"><text x="623.0" y="0" fill="#3a4f7a" opacity="0.1">ユ</text><text x="623.0" y="20" fill="#7E37F9" opacity="0.11">8</text><text x="623.0" y="40" fill="#3a4f7a" opacity="0.13">ム</text><text x="623.0" y="60" fill="#3a4f7a" opacity="0.14">ニ</text><text x="623.0" y="80" fill="#7E37F9" opacity="0.15">e</text><text x="623.0" y="100" fill="#3a4f7a" opacity="0.17">ナ</text><text x="623.0" y="120" fill="#3a4f7a" opacity="0.18">f</text><text x="623.0" y="140" fill="#7E37F9" opacity="0.19">4</text><text x="623.0" y="160" fill="#7E37F9" opacity="0.21">d</text><text x="623.0" y="180" fill="#3a4f7a" opacity="0.22">ラ</text><text x="623.0" y="200" fill="#7E37F9" opacity="0.23">ニ</text><text x="623.0" y="220" fill="#3a4f7a" opacity="0.25">ミ</text><text x="623.0" y="240" fill="#7E37F9" opacity="0.26">f</text><text x="623.0" y="260" fill="#7E37F9" opacity="0.27">8</text><text x="623.0" y="280" fill="#38f9d7" opacity="0.85">a</text><animateTransform attributeName="transform" type="translate" from="0,-300" to="0,280" dur="6.5s" begin="-8.88s" repeatCount="indefinite"/></g>
<g transform="translate(0,-300)"><text x="643.0" y="0" fill="#7E37F9" opacity="0.1">b</text><text x="643.0" y="20" fill="#7E37F9" opacity="0.11">フ</text><text x="643.0" y="40" fill="#3a4f7a" opacity="0.13">a</text><text x="643.0" y="60" fill="#3a4f7a" opacity="0.14">ツ</text><text x="643.0" y="80" fill="#7E37F9" opacity="0.15">ア</text><text x="643.0" y="100" fill="#7E37F9" opacity="0.17">ヰ</text><text x="643.0" y="120" fill="#3a4f7a" opacity="0.18">ワ</text><text x="643.0" y="140" fill="#7E37F9" opacity="0.19">グ</text><text x="643.0" y="160" fill="#3a4f7a" opacity="0.21">ム</text><text x="643.0" y="180" fill="#3a4f7a" opacity="0.22">ハ</text><text x="643.0" y="200" fill="#7E37F9" opacity="0.23">9</text><text x="643.0" y="220" fill="#3a4f7a" opacity="0.25">2</text><text x="643.0" y="240" fill="#3a4f7a" opacity="0.26">ヤ</text><text x="643.0" y="260" fill="#3a4f7a" opacity="0.27">ニ</text><text x="643.0" y="280" fill="#38f9d7" opacity="0.85">タ</text><animateTransform attributeName="transform" type="translate" from="0,-300" to="0,280" dur="6.9s" begin="-5.14s" repeatCount="indefinite"/></g>
<g transform="translate(0,-300)"><text x="663.0" y="0" fill="#7E37F9" opacity="0.1">7</text><text x="663.0" y="20" fill="#7E37F9" opacity="0.11">ア</text><text x="663.0" y="40" fill="#3a4f7a" opacity="0.13">ブ</text><text x="663.0" y="60" fill="#7E37F9" opacity="0.14">b</text><text x="663.0" y="80" fill="#7E37F9" opacity="0.15">2</text><text x="663.0" y="100" fill="#7E37F9" opacity="0.17">カ</text><text x="663.0" y="120" fill="#3a4f7a" opacity="0.18">ス</text><text x="663.0" y="140" fill="#7E37F9" opacity="0.19">ヅ</text><text x="663.0" y="160" fill="#7E37F9" opacity="0.21">1</text><text x="663.0" y="180" fill="#7E37F9" opacity="0.22">ラ</text><text x="663.0" y="200" fill="#7E37F9" opacity="0.23">b</text><text x="663.0" y="220" fill="#7E37F9" opacity="0.25">6</text><text x="663.0" y="240" fill="#3a4f7a" opacity="0.26">ミ</text><text x="663.0" y="260" fill="#7E37F9" opacity="0.27">9</text><text x="663.0" y="280" fill="#38f9d7" opacity="0.85">ス</text><animateTransform attributeName="transform" type="translate" from="0,-300" to="0,280" dur="6.92s" begin="-0.85s" repeatCount="indefinite"/></g>
<g transform="translate(0,-300)"><text x="683.0" y="0" fill="#3a4f7a" opacity="0.1">チ</text><text x="683.0" y="20" fill="#7E37F9" opacity="0.11">a</text><text x="683.0" y="40" fill="#3a4f7a" opacity="0.13">4</text><text x="683.0" y="60" fill="#7E37F9" opacity="0.14">1</text><text x="683.0" y="80" fill="#3a4f7a" opacity="0.15">ム</text><text x="683.0" y="100" fill="#7E37F9" opacity="0.17">ウ</text><text x="683.0" y="120" fill="#3a4f7a" opacity="0.18">ヅ</text><text x="683.0" y="140" fill="#3a4f7a" opacity="0.19">c</text><text x="683.0" y="160" fill="#7E37F9" opacity="0.21">2</text><text x="683.0" y="180" fill="#3a4f7a" opacity="0.22">e</text><text x="683.0" y="200" fill="#3a4f7a" opacity="0.23">キ</text><text x="683.0" y="220" fill="#3a4f7a" opacity="0.25">マ</text><text x="683.0" y="240" fill="#3a4f7a" opacity="0.26">b</text><text x="683.0" y="260" fill="#3a4f7a" opacity="0.27">ウ</text><text x="683.0" y="280" fill="#38f9d7" opacity="0.85">ウ</text><animateTransform attributeName="transform" type="translate" from="0,-300" to="0,280" dur="7.02s" begin="-6.55s" repeatCount="indefinite"/></g>
<g transform="translate(0,-300)"><text x="703.0" y="0" fill="#7E37F9" opacity="0.1">タ</text><text x="703.0" y="20" fill="#3a4f7a" opacity="0.11">ヤ</text><text x="703.0" y="40" fill="#7E37F9" opacity="0.13">ム</text><text x="703.0" y="60" fill="#3a4f7a" opacity="0.14">フ</text><text x="703.0" y="80" fill="#7E37F9" opacity="0.15">4</text><text x="703.0" y="100" fill="#7E37F9" opacity="0.17">マ</text><text x="703.0" y="120" fill="#3a4f7a" opacity="0.18">ワ</text><text x="703.0" y="140" fill="#3a4f7a" opacity="0.19">ア</text><text x="703.0" y="160" fill="#7E37F9" opacity="0.21">ハ</text><text x="703.0" y="180" fill="#7E37F9" opacity="0.22">ヅ</text><text x="703.0" y="200" fill="#7E37F9" opacity="0.23">7</text><text x="703.0" y="220" fill="#7E37F9" opacity="0.25">1</text><text x="703.0" y="240" fill="#3a4f7a" opacity="0.26">4</text><text x="703.0" y="260" fill="#7E37F9" opacity="0.27">ブ</text><text x="703.0" y="280" fill="#38f9d7" opacity="0.85">8</text><animateTransform attributeName="transform" type="translate" from="0,-300" to="0,280" dur="5.42s" begin="-8.69s" repeatCount="indefinite"/></g>
<g transform="translate(0,-300)"><text x="723.0" y="0" fill="#7E37F9" opacity="0.1">タ</text><text x="723.0" y="20" fill="#7E37F9" opacity="0.11">2</text><text x="723.0" y="40" fill="#3a4f7a" opacity="0.13">イ</text><text x="723.0" y="60" fill="#7E37F9" opacity="0.14">1</text><text x="723.0" y="80" fill="#7E37F9" opacity="0.15">e</text><text x="723.0" y="100" fill="#7E37F9" opacity="0.17">ヤ</text><text x="723.0" y="120" fill="#7E37F9" opacity="0.18">d</text><text x="723.0" y="140" fill="#3a4f7a" opacity="0.19">e</text><text x="723.0" y="160" fill="#7E37F9" opacity="0.21">a</text><text x="723.0" y="180" fill="#3a4f7a" opacity="0.22">ス</text><text x="723.0" y="200" fill="#3a4f7a" opacity="0.23">0</text><text x="723.0" y="220" fill="#3a4f7a" opacity="0.25">9</text><text x="723.0" y="240" fill="#7E37F9" opacity="0.26">7</text><text x="723.0" y="260" fill="#3a4f7a" opacity="0.27">7</text><text x="723.0" y="280" fill="#38f9d7" opacity="0.85">ア</text><animateTransform attributeName="transform" type="translate" from="0,-300" to="0,280" dur="9.07s" begin="-8.53s" repeatCount="indefinite"/></g>
<g transform="translate(0,-300)"><text x="743.0" y="0" fill="#7E37F9" opacity="0.1">サ</text><text x="743.0" y="20" fill="#7E37F9" opacity="0.11">ワ</text><text x="743.0" y="40" fill="#7E37F9" opacity="0.13">f</text><text x="743.0" y="60" fill="#3a4f7a" opacity="0.14">ブ</text><text x="743.0" y="80" fill="#7E37F9" opacity="0.15">ニ</text><text x="743.0" y="100" fill="#7E37F9" opacity="0.17">ム</text><text x="743.0" y="120" fill="#3a4f7a" opacity="0.18">ミ</text><text x="743.0" y="140" fill="#7E37F9" opacity="0.19">フ</text><text x="743.0" y="160" fill="#3a4f7a" opacity="0.21">ツ</text><text x="743.0" y="180" fill="#3a4f7a" opacity="0.22">ミ</text><text x="743.0" y="200" fill="#3a4f7a" opacity="0.23">ヅ</text><text x="743.0" y="220" fill="#7E37F9" opacity="0.25">チ</text><text x="743.0" y="240" fill="#7E37F9" opacity="0.26">ヰ</text><text x="743.0" y="260" fill="#3a4f7a" opacity="0.27">ム</text><text x="743.0" y="280" fill="#38f9d7" opacity="0.85">7</text><animateTransform attributeName="transform" type="translate" from="0,-300" to="0,280" dur="6.11s" begin="-6.59s" repeatCount="indefinite"/></g>
<g transform="translate(0,-300)"><text x="763.0" y="0" fill="#7E37F9" opacity="0.1">マ</text><text x="763.0" y="20" fill="#7E37F9" opacity="0.11">ハ</text><text x="763.0" y="40" fill="#7E37F9" opacity="0.13">ツ</text><text x="763.0" y="60" fill="#7E37F9" opacity="0.14">3</text><text x="763.0" y="80" fill="#3a4f7a" opacity="0.15">f</text><text x="763.0" y="100" fill="#7E37F9" opacity="0.17">リ</text><text x="763.0" y="120" fill="#7E37F9" opacity="0.18">4</text><text x="763.0" y="140" fill="#3a4f7a" opacity="0.19">シ</text><text x="763.0" y="160" fill="#7E37F9" opacity="0.21">カ</text><text x="763.0" y="180" fill="#7E37F9" opacity="0.22">ズ</text><text x="763.0" y="200" fill="#3a4f7a" opacity="0.23">2</text><text x="763.0" y="220" fill="#3a4f7a" opacity="0.25">3</text><text x="763.0" y="240" fill="#3a4f7a" opacity="0.26">ク</text><text x="763.0" y="260" fill="#7E37F9" opacity="0.27">c</text><text x="763.0" y="280" fill="#38f9d7" opacity="0.85">b</text><animateTransform attributeName="transform" type="translate" from="0,-300" to="0,280" dur="4.72s" begin="-0.03s" repeatCount="indefinite"/></g>
<g transform="translate(0,-300)"><text x="783.0" y="0" fill="#3a4f7a" opacity="0.1">サ</text><text x="783.0" y="20" fill="#3a4f7a" opacity="0.11">1</text><text x="783.0" y="40" fill="#7E37F9" opacity="0.13">1</text><text x="783.0" y="60" fill="#7E37F9" opacity="0.14">ヅ</text><text x="783.0" y="80" fill="#3a4f7a" opacity="0.15">ア</text><text x="783.0" y="100" fill="#3a4f7a" opacity="0.17">9</text><text x="783.0" y="120" fill="#7E37F9" opacity="0.18">マ</text><text x="783.0" y="140" fill="#7E37F9" opacity="0.19">フ</text><text x="783.0" y="160" fill="#7E37F9" opacity="0.21">イ</text><text x="783.0" y="180" fill="#7E37F9" opacity="0.22">0</text><text x="783.0" y="200" fill="#7E37F9" opacity="0.23">1</text><text x="783.0" y="220" fill="#3a4f7a" opacity="0.25">2</text><text x="783.0" y="240" fill="#3a4f7a" opacity="0.26">4</text><text x="783.0" y="260" fill="#3a4f7a" opacity="0.27">c</text><text x="783.0" y="280" fill="#38f9d7" opacity="0.85">e</text><animateTransform attributeName="transform" type="translate" from="0,-300" to="0,280" dur="9.33s" begin="-0.07s" repeatCount="indefinite"/></g>
<g transform="translate(0,-300)"><text x="803.0" y="0" fill="#3a4f7a" opacity="0.1">ヤ</text><text x="803.0" y="20" fill="#3a4f7a" opacity="0.11">ニ</text><text x="803.0" y="40" fill="#3a4f7a" opacity="0.13">グ</text><text x="803.0" y="60" fill="#7E37F9" opacity="0.14">ワ</text><text x="803.0" y="80" fill="#7E37F9" opacity="0.15">ワ</text><text x="803.0" y="100" fill="#7E37F9" opacity="0.17">ヰ</text><text x="803.0" y="120" fill="#7E37F9" opacity="0.18">ブ</text><text x="803.0" y="140" fill="#7E37F9" opacity="0.19">ヅ</text><text x="803.0" y="160" fill="#3a4f7a" opacity="0.21">1</text><text x="803.0" y="180" fill="#3a4f7a" opacity="0.22">6</text><text x="803.0" y="200" fill="#7E37F9" opacity="0.23">3</text><text x="803.0" y="220" fill="#7E37F9" opacity="0.25">ヌ</text><text x="803.0" y="240" fill="#3a4f7a" opacity="0.26">ヒ</text><text x="803.0" y="260" fill="#7E37F9" opacity="0.27">ヰ</text><text x="803.0" y="280" fill="#38f9d7" opacity="0.85">ヰ</text><animateTransform attributeName="transform" type="translate" from="0,-300" to="0,280" dur="9.36s" begin="-6.1s" repeatCount="indefinite"/></g>
<g transform="translate(0,-300)"><text x="823.0" y="0" fill="#7E37F9" opacity="0.1">プ</text><text x="823.0" y="20" fill="#3a4f7a" opacity="0.11">ア</text><text x="823.0" y="40" fill="#7E37F9" opacity="0.13">9</text><text x="823.0" y="60" fill="#7E37F9" opacity="0.14">ユ</text><text x="823.0" y="80" fill="#3a4f7a" opacity="0.15">ラ</text><text x="823.0" y="100" fill="#3a4f7a" opacity="0.17">ニ</text><text x="823.0" y="120" fill="#3a4f7a" opacity="0.18">ハ</text><text x="823.0" y="140" fill="#3a4f7a" opacity="0.19">f</text><text x="823.0" y="160" fill="#3a4f7a" opacity="0.21">ラ</text><text x="823.0" y="180" fill="#3a4f7a" opacity="0.22">6</text><text x="823.0" y="200" fill="#3a4f7a" opacity="0.23">ナ</text><text x="823.0" y="220" fill="#3a4f7a" opacity="0.25">タ</text><text x="823.0" y="240" fill="#3a4f7a" opacity="0.26">ヰ</text><text x="823.0" y="260" fill="#7E37F9" opacity="0.27">f</text><text x="823.0" y="280" fill="#38f9d7" opacity="0.85">ヅ</text><animateTransform attributeName="transform" type="translate" from="0,-300" to="0,280" dur="5.22s" begin="-3.24s" repeatCount="indefinite"/></g>
<g transform="translate(0,-300)"><text x="843.0" y="0" fill="#7E37F9" opacity="0.1">ヌ</text><text x="843.0" y="20" fill="#7E37F9" opacity="0.11">0</text><text x="843.0" y="40" fill="#7E37F9" opacity="0.13">2</text><text x="843.0" y="60" fill="#3a4f7a" opacity="0.14">a</text><text x="843.0" y="80" fill="#7E37F9" opacity="0.15">1</text><text x="843.0" y="100" fill="#7E37F9" opacity="0.17">ブ</text><text x="843.0" y="120" fill="#7E37F9" opacity="0.18">ラ</text><text x="843.0" y="140" fill="#3a4f7a" opacity="0.19">7</text><text x="843.0" y="160" fill="#7E37F9" opacity="0.21">ウ</text><text x="843.0" y="180" fill="#7E37F9" opacity="0.22">0</text><text x="843.0" y="200" fill="#7E37F9" opacity="0.23">6</text><text x="843.0" y="220" fill="#3a4f7a" opacity="0.25">e</text><text x="843.0" y="240" fill="#7E37F9" opacity="0.26">3</text><text x="843.0" y="260" fill="#7E37F9" opacity="0.27">キ</text><text x="843.0" y="280" fill="#38f9d7" opacity="0.85">ブ</text><animateTransform attributeName="transform" type="translate" from="0,-300" to="0,280" dur="5.17s" begin="-3.01s" repeatCount="indefinite"/></g>
</g>
<rect width="860" height="280" fill="url(#scan)" opacity="0"/>
<rect x="150.0" y="80.0" width="560" height="120" rx="14" fill="#0b0f17" opacity="0.68" stroke="#7E37F9" stroke-opacity="0.5"/>
<text x="430.0" y="122.0" text-anchor="middle" font-size="15" fill="#5b6784">yomananchill@0xmanan:~$ <tspan fill="#38f9d7">whoami</tspan></text>
<text x="430.0" y="162.0" text-anchor="middle" font-size="44" font-weight="800" fill="url(#title)" filter="url(#neon)" letter-spacing="1">security researcher</text>
<text x="430.0" y="188.0" text-anchor="middle" font-size="13" fill="#8b93a7">reads other people’s code until it breaks <tspan fill="#E568C4">█<animate attributeName="opacity" values="1;1;0;0" dur="1s" repeatCount="indefinite"/></tspan></text>
</svg>